<?xml version="1.0" encoding="UTF-8"?>
<svg width="121px" height="120px" viewBox="0 0 121 120" version="1.1" xmlns="http://www.w3.org/2000/svg" xmlns:xlink="http://www.w3.org/1999/xlink">
    <title>Group 355</title>
    <g id="Page-1" stroke="none" stroke-width="1" fill="none" fill-rule="evenodd">
        <g id="Gatsu_Gatsu_Website_mobile_HOME" transform="translate(-284.000000, -364.000000)">
            <g id="Group-355" transform="translate(285.892641, 365.647884)">
                <path d="M85.3148591,6.77301621 C85.0148591,5.14301621 83.5998591,4.47801621 82.1538591,5.28701621 L76.5348591,8.42801621 C75.0888591,9.23701621 73.3118591,8.69301621 72.5648591,7.21401621 L69.6638591,1.46801621 C68.9168591,-0.0109837878 67.3718591,-0.249983788 66.2118591,0.932016212 L61.7058591,5.53001621 C60.5458591,6.71301621 58.6878591,6.69301621 57.5548591,5.48401621 L53.1518591,0.788016212 C52.0188591,-0.420983788 50.4688591,-0.215983788 49.6888591,1.24601621 L46.6608591,6.92601621 C45.8818591,8.38901621 44.0928591,8.89201621 42.6648591,8.05201621 L37.1168591,4.78601621 C35.6898591,3.94601621 34.2598591,4.58001621 33.9238591,6.20201621 L32.6188591,12.5050162 C32.2828591,14.1280162 30.7078591,15.1160162 29.1018591,14.7110162 L22.8588591,13.1410162 C21.2518591,12.7360162 20.0588591,13.7480162 20.1938591,15.3980162 L20.7178591,21.8150162 C20.8518591,23.4660162 19.6198591,24.8570162 17.9638591,24.9220162 L11.5318591,25.1730162 C9.87585913,25.2390162 9.01585913,26.5440162 9.61085913,28.0910162 L11.9208591,34.1000162 C12.5148591,35.6460162 11.7248591,37.3290162 10.1538591,37.8570162 L4.05285913,39.9110162 C2.48285913,40.4390162 2.02585913,41.9350162 3.03185913,43.2520162 L6.94085913,48.3650162 C7.94785913,49.6820162 7.66285913,51.5180162 6.30485913,52.4680162 L1.02985913,56.1570162 C-0.32814087,57.1070162 -0.34514087,58.6710162 0.99085913,59.6500162 L6.18285913,63.4560162 C7.51885913,64.4360162 7.76285913,66.2780162 6.72785913,67.5720162 L2.70585913,72.5980162 C1.67085913,73.8920162 2.09485913,75.3970162 3.65285913,75.9610162 L9.70685913,78.1490162 C11.2648591,78.7120162 12.0178591,80.4120162 11.3888591,81.9450162 L8.94585913,87.9000162 C8.31685913,89.4330162 9.14785913,90.7580162 10.8018591,90.8600162 L17.2268591,91.2540162 C18.8808591,91.3560162 20.0828591,92.7740162 19.9108591,94.4220162 L19.2448591,100.825016 C19.0738591,102.473016 20.2438591,103.510016 21.8588591,103.141016 L28.1348591,101.710016 C29.7508591,101.341016 31.3028591,102.364016 31.6028591,103.993016 L32.7678591,110.324016 C33.0668591,111.954016 34.4828591,112.619016 35.9288591,111.810016 L41.5468591,108.669016 C42.9928591,107.860016 44.7708591,108.404016 45.5178591,109.882016 L48.4188591,115.629016 C49.1648591,117.108016 50.7108591,117.348016 51.8708591,116.165016 L56.3758591,111.567016 C57.5358591,110.384016 59.3948591,110.405016 60.5278591,111.613016 L64.9298591,116.310016 C66.0638591,117.518016 67.6138591,117.313016 68.3928591,115.851016 L71.4208591,110.170016 C72.2008591,108.709016 73.9898591,108.205016 75.4178591,109.045016 L80.9648591,112.311016 C82.3928591,113.151016 83.8228591,112.517016 84.1588591,110.895016 L85.4628591,104.591016 C85.7988591,102.969016 87.3738591,101.982016 88.9808591,102.385016 L95.2238591,103.957016 C96.8298591,104.361016 98.0238591,103.350016 97.8888591,101.698016 L97.3648591,95.2830162 C97.2298591,93.6310162 98.4628591,92.2400162 100.118859,92.1750162 L106.550859,91.9230162 C108.205859,91.8580162 109.065859,90.5520162 108.471859,89.0050162 L106.161859,82.9980162 C105.566859,81.4510162 106.357859,79.7690162 107.927859,79.2400162 L114.028859,77.1860162 C115.598859,76.6580162 116.056859,75.1620162 115.049859,73.8460162 L111.140859,68.7310162 C110.134859,67.4160162 110.419859,65.5790162 111.777859,64.6290162 L117.052859,60.9400162 C118.409859,59.9900162 118.427859,58.4260162 117.091859,57.4470162 L111.899859,53.6410162 C110.562859,52.6620162 110.318859,50.8190162 111.353859,49.5250162 L115.376859,44.4990162 C116.411859,43.2060162 115.987859,41.7000162 114.429859,41.1370162 L108.375859,38.9480162 C106.817859,38.3840162 106.063859,36.6850162 106.692859,35.1520162 L109.135859,29.1970162 C109.764859,27.6640162 108.933859,26.3380162 107.279859,26.2370162 L101.853859,25.9040162 C99.6478591,25.7690162 98.0458591,23.8770162 98.2748591,21.6800162 L98.9408591,15.2780162 C99.0548591,14.1790162 98.2748591,13.4870162 97.1978591,13.7330162 L91.8968591,14.9420162 C89.2048591,15.5560162 86.6168591,13.8530162 86.1178591,11.1360162 L85.3148591,6.77301621 Z" id="Fill-351" fill="#E94E24"></path>
                <path d="M85.3148591,6.77301621 C85.0148591,5.14301621 83.5998591,4.47801621 82.1538591,5.28701621 L76.5348591,8.42801621 C75.0888591,9.23701621 73.3118591,8.69301621 72.5648591,7.21401621 L69.6638591,1.46801621 C68.9168591,-0.0109837878 67.3718591,-0.249983788 66.2118591,0.932016212 L61.7058591,5.53001621 C60.5458591,6.71301621 58.6878591,6.69301621 57.5548591,5.48401621 L53.1518591,0.788016212 C52.0188591,-0.420983788 50.4688591,-0.215983788 49.6888591,1.24601621 L46.6608591,6.92601621 C45.8818591,8.38901621 44.0928591,8.89201621 42.6648591,8.05201621 L37.1168591,4.78601621 C35.6898591,3.94601621 34.2598591,4.58001621 33.9238591,6.20201621 L32.6188591,12.5050162 C32.2828591,14.1280162 30.7078591,15.1160162 29.1018591,14.7110162 L22.8588591,13.1410162 C21.2518591,12.7360162 20.0588591,13.7480162 20.1938591,15.3980162 L20.7178591,21.8150162 C20.8518591,23.4660162 19.6198591,24.8570162 17.9638591,24.9220162 L11.5318591,25.1730162 C9.87585913,25.2390162 9.01585913,26.5440162 9.61085913,28.0910162 L11.9208591,34.1000162 C12.5148591,35.6460162 11.7248591,37.3290162 10.1538591,37.8570162 L4.05285913,39.9110162 C2.48285913,40.4390162 2.02585913,41.9350162 3.03185913,43.2520162 L6.94085913,48.3650162 C7.94785913,49.6820162 7.66285913,51.5180162 6.30485913,52.4680162 L1.02985913,56.1570162 C-0.32814087,57.1070162 -0.34514087,58.6710162 0.99085913,59.6500162 L6.18285913,63.4560162 C7.51885913,64.4360162 7.76285913,66.2780162 6.72785913,67.5720162 L2.70585913,72.5980162 C1.67085913,73.8920162 2.09485913,75.3970162 3.65285913,75.9610162 L9.70685913,78.1490162 C11.2648591,78.7120162 12.0178591,80.4120162 11.3888591,81.9450162 L8.94585913,87.9000162 C8.31685913,89.4330162 9.14785913,90.7580162 10.8018591,90.8600162 L17.2268591,91.2540162 C18.8808591,91.3560162 20.0828591,92.7740162 19.9108591,94.4220162 L19.2448591,100.825016 C19.0738591,102.473016 20.2438591,103.510016 21.8588591,103.141016 L28.1348591,101.710016 C29.7508591,101.341016 31.3028591,102.364016 31.6028591,103.993016 L32.7678591,110.324016 C33.0668591,111.954016 34.4828591,112.619016 35.9288591,111.810016 L41.5468591,108.669016 C42.9928591,107.860016 44.7708591,108.404016 45.5178591,109.882016 L48.4188591,115.629016 C49.1648591,117.108016 50.7108591,117.348016 51.8708591,116.165016 L56.3758591,111.567016 C57.5358591,110.384016 59.3948591,110.405016 60.5278591,111.613016 L64.9298591,116.310016 C66.0638591,117.518016 67.6138591,117.313016 68.3928591,115.851016 L71.4208591,110.170016 C72.2008591,108.709016 73.9898591,108.205016 75.4178591,109.045016 L80.9648591,112.311016 C82.3928591,113.151016 83.8228591,112.517016 84.1588591,110.895016 L85.4628591,104.591016 C85.7988591,102.969016 87.3738591,101.982016 88.9808591,102.385016 L95.2238591,103.957016 C96.8298591,104.361016 98.0238591,103.350016 97.8888591,101.698016 L97.3648591,95.2830162 C97.2298591,93.6310162 98.4628591,92.2400162 100.118859,92.1750162 L106.550859,91.9230162 C108.205859,91.8580162 109.065859,90.5520162 108.471859,89.0050162 L106.161859,82.9980162 C105.566859,81.4510162 106.357859,79.7690162 107.927859,79.2400162 L114.028859,77.1860162 C115.598859,76.6580162 116.056859,75.1620162 115.049859,73.8460162 L111.140859,68.7310162 C110.134859,67.4160162 110.419859,65.5790162 111.777859,64.6290162 L117.052859,60.9400162 C118.409859,59.9900162 118.427859,58.4260162 117.091859,57.4470162 L111.899859,53.6410162 C110.562859,52.6620162 110.318859,50.8190162 111.353859,49.5250162 L115.376859,44.4990162 C116.411859,43.2060162 115.987859,41.7000162 114.429859,41.1370162 L108.375859,38.9480162 C106.817859,38.3840162 106.063859,36.6850162 106.692859,35.1520162 L109.135859,29.1970162 C109.764859,27.6640162 108.933859,26.3380162 107.279859,26.2370162 L101.853859,25.9040162 C99.6478591,25.7690162 98.0458591,23.8770162 98.2748591,21.6800162 L98.9408591,15.2780162 C99.0548591,14.1790162 98.2748591,13.4870162 97.1978591,13.7330162 L91.8968591,14.9420162 C89.2048591,15.5560162 86.6168591,13.8530162 86.1178591,11.1360162 L85.3148591,6.77301621 Z" id="Stroke-353" stroke="#FFEED8" stroke-width="1.994"></path>
            </g>
        </g>
    </g>
</svg>